<svg width="46" height="43" viewBox="0 0 46 43" fill="none" xmlns="http://www.w3.org/2000/svg">
<path d="M6.97339 7.78072C6.97339 7.49115 7.09514 7.21344 7.31186 7.00868C7.52858 6.80392 7.82252 6.68889 8.12901 6.68889H9.14133C10.8216 6.68889 11.7877 7.72176 12.347 8.75245C12.7284 9.45777 13.0034 10.3181 13.2322 11.0649H37.0265C37.3836 11.065 37.7358 11.1433 38.0556 11.2937C38.3753 11.444 38.6538 11.6623 38.8692 11.9314C39.0846 12.2005 39.2311 12.5131 39.2971 12.8447C39.3632 13.1763 39.347 13.5179 39.2499 13.8426L35.7923 25.3614C35.5172 26.2752 34.9343 27.0795 34.1318 27.652C33.3293 28.2246 32.3511 28.5343 31.3454 28.5342H19.6066C18.5926 28.5345 17.6067 28.2198 16.8006 27.6386C15.9945 27.0574 15.4131 26.2419 15.1459 25.3177L13.6621 20.1752L13.639 20.1053L11.2584 12.4669L11.0273 11.731C10.7962 10.9754 10.5928 10.3072 10.2877 9.74601C9.92022 9.06908 9.58278 8.87255 9.14133 8.87255H8.12901C7.82252 8.87255 7.52858 8.75752 7.31186 8.55276C7.09514 8.348 6.97339 8.07029 6.97339 7.78072ZM15.867 19.5157L17.3763 24.7477C17.5101 25.2096 17.8009 25.6171 18.2039 25.9076C18.6069 26.198 19.0998 26.3552 19.6066 26.3549H31.3477C31.8503 26.3544 32.339 26.1992 32.7398 25.9127C33.1406 25.6263 33.4317 25.2242 33.5689 24.7674L37.0265 13.2486H13.914L15.867 19.5157ZM23.159 33.9912C23.159 34.8599 22.7938 35.693 22.1436 36.3073C21.4934 36.9216 20.6116 37.2667 19.6922 37.2667C18.7727 37.2667 17.8909 36.9216 17.2407 36.3073C16.5905 35.693 16.2253 34.8599 16.2253 33.9912C16.2253 33.1225 16.5905 32.2893 17.2407 31.6751C17.8909 31.0608 18.7727 30.7157 19.6922 30.7157C20.6116 30.7157 21.4934 31.0608 22.1436 31.6751C22.7938 32.2893 23.159 33.1225 23.159 33.9912ZM20.8478 33.9912C20.8478 33.7016 20.726 33.4239 20.5093 33.2191C20.2926 33.0144 19.9986 32.8993 19.6922 32.8993C19.3857 32.8993 19.0917 33.0144 18.875 33.2191C18.6583 33.4239 18.5365 33.7016 18.5365 33.9912C18.5365 34.2807 18.6583 34.5585 18.875 34.7632C19.0917 34.968 19.3857 35.083 19.6922 35.083C19.9986 35.083 20.2926 34.968 20.5093 34.7632C20.726 34.5585 20.8478 34.2807 20.8478 33.9912ZM34.7152 33.9912C34.7152 34.8599 34.35 35.693 33.6998 36.3073C33.0496 36.9216 32.1678 37.2667 31.2484 37.2667C30.3289 37.2667 29.4471 36.9216 28.7969 36.3073C28.1468 35.693 27.7815 34.8599 27.7815 33.9912C27.7815 33.1225 28.1468 32.2893 28.7969 31.6751C29.4471 31.0608 30.3289 30.7157 31.2484 30.7157C32.1678 30.7157 33.0496 31.0608 33.6998 31.6751C34.35 32.2893 34.7152 33.1225 34.7152 33.9912ZM32.404 33.9912C32.404 33.7016 32.2822 33.4239 32.0655 33.2191C31.8488 33.0144 31.5549 32.8993 31.2484 32.8993C30.9419 32.8993 30.6479 33.0144 30.4312 33.2191C30.2145 33.4239 30.0927 33.7016 30.0927 33.9912C30.0927 34.2807 30.2145 34.5585 30.4312 34.7632C30.6479 34.968 30.9419 35.083 31.2484 35.083C31.5549 35.083 31.8488 34.968 32.0655 34.7632C32.2822 34.5585 32.404 34.2807 32.404 33.9912Z" fill="currentColor"/>
</svg>
