<svg width="37" height="38" viewBox="0 0 37 38" fill="none" xmlns="http://www.w3.org/2000/svg">
<path d="M18.6696 9.23156L17.8568 10.028C17.9621 10.1392 18.0883 10.2276 18.228 10.2881C18.3677 10.3485 18.5179 10.3796 18.6696 10.3796C18.8214 10.3796 18.9716 10.3485 19.1112 10.2881C19.2509 10.2276 19.3772 10.1392 19.4825 10.028L18.6696 9.23156ZM14.795 28.8708C12.513 27.0404 10.0187 25.253 8.03929 22.9861C6.10048 20.7621 4.74572 18.1689 4.74572 14.8023H2.48779C2.48779 18.8858 4.15866 22.0012 6.35186 24.5116C8.50442 26.9776 11.2501 28.9535 13.3966 30.6751L14.795 28.8708ZM4.74572 14.8023C4.74572 11.5092 6.57464 8.74602 9.07191 7.58347C11.4984 6.45462 14.7589 6.7533 17.8568 10.028L19.4825 8.43662C15.8096 4.55074 11.5406 3.90897 8.13261 5.49426C4.79991 7.04585 2.48779 10.6484 2.48779 14.8023H4.74572ZM13.3966 30.6751C14.1688 31.2939 14.9967 31.9525 15.8352 32.4519C16.6736 32.9512 17.631 33.3556 18.6696 33.3556V31.058C18.203 31.058 17.655 30.8742 16.9747 30.4683C16.2928 30.064 15.5868 29.5064 14.795 28.8708L13.3966 30.6751ZM23.9426 30.6751C26.0892 28.952 28.8348 26.9792 30.9874 24.5116C33.1806 21.9997 34.8514 18.8858 34.8514 14.8023H32.5935C32.5935 18.1689 31.2387 20.7621 29.2999 22.9861C27.3205 25.253 24.8262 27.0404 22.5442 28.8708L23.9426 30.6751ZM34.8514 14.8023C34.8514 10.6484 32.5408 7.04585 29.2066 5.49426C25.7986 3.90897 21.5327 4.55074 17.8568 8.43509L19.4825 10.028C22.5803 6.75483 25.8408 6.45462 28.2673 7.58347C30.7646 8.74602 32.5935 11.5076 32.5935 14.8023H34.8514ZM22.5442 28.8708C21.7524 29.5064 21.0465 30.064 20.3646 30.4683C19.6827 30.8727 19.1362 31.058 18.6696 31.058V33.3556C19.7083 33.3556 20.6656 32.9497 21.5041 32.4519C22.344 31.9525 23.1704 31.2939 23.9426 30.6751L22.5442 28.8708Z" fill="currentColor"/>
</svg>
