<svg width="19" height="19" viewBox="0 0 19 19" fill="none" xmlns="http://www.w3.org/2000/svg">
<path d="M3.80083 2.96875H14.9111C15.609 2.96875 16.2783 3.25025 16.7718 3.75132C17.2653 4.2524 17.5425 4.932 17.5425 5.64062V13.3594C17.5425 14.068 17.2653 14.7476 16.7718 15.2487C16.2783 15.7497 15.609 16.0312 14.9111 16.0312H3.80083C3.10294 16.0312 2.43363 15.7497 1.94015 15.2487C1.44667 14.7476 1.16943 14.068 1.16943 13.3594V5.64062C1.16943 4.932 1.44667 4.2524 1.94015 3.75132C2.43363 3.25025 3.10294 2.96875 3.80083 2.96875ZM16.9578 6.05981V5.64062C16.9578 5.08947 16.7422 4.56089 16.3583 4.17117C15.9745 3.78144 15.4539 3.5625 14.9111 3.5625H3.80083C3.25802 3.5625 2.73745 3.78144 2.35363 4.17117C1.96981 4.56089 1.75419 5.08947 1.75419 5.64062V6.05981L9.35599 10.3479L16.9578 6.05981ZM1.75419 6.73906V13.3594C1.75419 13.9105 1.96981 14.4391 2.35363 14.8288C2.73745 15.2186 3.25802 15.4375 3.80083 15.4375H14.9111C15.4539 15.4375 15.9745 15.2186 16.3583 14.8288C16.7422 14.4391 16.9578 13.9105 16.9578 13.3594V6.73906L9.49808 10.947C9.45462 10.9715 9.40571 10.9844 9.35599 10.9844C9.30626 10.9844 9.25735 10.9715 9.21389 10.947L1.75419 6.73906Z" fill="currentColor"/>
</svg>
