<svg width="18" height="18" viewBox="0 0 18 18" fill="none" xmlns="http://www.w3.org/2000/svg">
<path d="M15.3446 11.2711L12.0733 9.78256C11.9251 9.71807 11.7634 9.69215 11.6028 9.70712C11.4423 9.7221 11.2879 9.77751 11.1537 9.86834C11.1401 9.87725 11.1272 9.88712 11.115 9.89787L9.40525 11.3744C9.38751 11.3843 9.36776 11.3897 9.34757 11.3905C9.32738 11.3912 9.30729 11.3872 9.28891 11.3787C8.18996 10.8401 7.05153 9.69115 6.51902 8.59076C6.51016 8.57237 6.50555 8.55217 6.50555 8.5317C6.50555 8.51122 6.51016 8.49102 6.51902 8.47264L7.97806 6.71482C7.98855 6.70183 7.99826 6.68821 8.00714 6.67404C8.09536 6.53729 8.14864 6.38038 8.16218 6.21748C8.17572 6.05458 8.14909 5.89083 8.0847 5.74099L6.62913 2.42506C6.54647 2.22931 6.40351 2.06607 6.22172 1.95983C6.03993 1.85359 5.8291 1.81008 5.62089 1.83584C4.71598 1.95663 3.88536 2.40786 3.28423 3.10519C2.6831 3.80252 2.3526 4.69825 2.3545 5.62498C2.3545 11.1304 6.76554 15.6094 12.1876 15.6094C13.1002 15.6111 13.9823 15.2755 14.6691 14.6651C15.3558 14.0548 15.8002 13.2115 15.9193 12.2927C15.9446 12.0823 15.9024 11.8692 15.7988 11.6851C15.6953 11.501 15.5359 11.3558 15.3446 11.2711ZM12.1876 14.7656C7.22396 14.7656 3.18547 10.665 3.18547 5.62498C3.18315 4.90352 3.43961 4.20589 3.90691 3.66242C4.37422 3.11896 5.02042 2.76684 5.72476 2.67185H5.74069C5.76859 2.67238 5.79569 2.68146 5.81842 2.6979C5.84116 2.71433 5.85848 2.73736 5.8681 2.76396L7.32922 6.07639C7.33755 6.0948 7.34186 6.11483 7.34186 6.1351C7.34186 6.15536 7.33755 6.17539 7.32922 6.19381L5.86741 7.95584C5.85656 7.96846 5.8466 7.98185 5.83763 7.99592C5.74616 8.13771 5.6923 8.30108 5.68126 8.47021C5.67022 8.63934 5.70237 8.8085 5.77462 8.96131C6.38884 10.2382 7.65606 11.5151 8.92744 12.1387C9.07881 12.2117 9.24622 12.2435 9.41334 12.2312C9.58045 12.2189 9.74157 12.1628 9.88097 12.0684C9.89413 12.0593 9.90729 12.0494 9.91975 12.0389L11.6288 10.5623C11.6456 10.5531 11.6643 10.5477 11.6834 10.5465C11.7025 10.5453 11.7217 10.5483 11.7396 10.5553L15.0115 12.0438C15.0382 12.0554 15.0607 12.0752 15.0757 12.1004C15.0908 12.1256 15.0976 12.155 15.0953 12.1844C15.0022 12.8999 14.6558 13.5566 14.1207 14.0316C13.5855 14.5066 12.8984 14.7675 12.1876 14.7656Z" fill="currentColor"/>
</svg>
