<svg width="40" height="41" viewBox="0 0 40 41" fill="none" xmlns="http://www.w3.org/2000/svg">
<path d="M18.0855 31.4889C15.6381 31.4889 13.2457 30.7604 11.2107 29.3954C9.17576 28.0304 7.58971 26.0903 6.65313 23.8205C5.71654 21.5506 5.47149 19.0529 5.94896 16.6432C6.42642 14.2336 7.60496 12.0201 9.33554 10.2828C11.0661 8.54557 13.271 7.36246 15.6714 6.88315C18.0718 6.40384 20.5599 6.64984 22.821 7.59005C25.0821 8.53025 27.0147 10.1224 28.3744 12.1653C29.7341 14.2081 30.4598 16.6098 30.4598 19.0667C30.4598 20.698 30.1398 22.3133 29.5179 23.8205C28.896 25.3276 27.9846 26.697 26.8355 27.8505C25.6864 29.004 24.3223 29.919 22.821 30.5433C21.3196 31.1676 19.7105 31.4889 18.0855 31.4889ZM18.0855 9.1355C16.1354 9.1355 14.2291 9.71602 12.6076 10.8036C10.9861 11.8913 9.72232 13.4372 8.97604 15.2458C8.22976 17.0545 8.0345 19.0447 8.41495 20.9647C8.7954 22.8848 9.73448 24.6485 11.1134 26.0328C12.4924 27.417 14.2493 28.3598 16.1619 28.7417C18.0746 29.1236 20.0571 28.9276 21.8588 28.1784C23.6605 27.4292 25.2004 26.1606 26.2838 24.5328C27.3673 22.9051 27.9455 20.9914 27.9455 19.0337C27.9455 16.4085 26.9067 13.8909 25.0576 12.0346C23.2085 10.1783 20.7006 9.1355 18.0855 9.1355Z" fill="currentColor"/>
<path d="M32.9962 35.3111C32.829 35.3119 32.6634 35.2792 32.509 35.2148C32.3546 35.1505 32.2145 35.0559 32.097 34.9365L25.0903 27.9034C24.8655 27.6613 24.7432 27.3411 24.749 27.0102C24.7548 26.6793 24.8883 26.3637 25.1215 26.1296C25.3546 25.8956 25.6691 25.7616 25.9987 25.7558C26.3284 25.7499 26.6474 25.8727 26.8886 26.0984L33.8954 33.1314C34.1337 33.3709 34.2675 33.6955 34.2675 34.0339C34.2675 34.3724 34.1337 34.697 33.8954 34.9365C33.7779 35.0559 33.6378 35.1505 33.4834 35.2148C33.329 35.2792 33.1634 35.3119 32.9962 35.3111Z" fill="currentColor"/>
</svg>
